<svg xmlns="http://www.w3.org/2000/svg" xmlns:xlink="http://www.w3.org/1999/xlink" version="1.1" x="0px" y="0px" viewBox="0 0 48 60" enable-background="new 0 0 48 48" xml:space="preserve"><g><g><g><path fill="#000000" d="M3.8,35.1c1.6-4.9,3.3-9.7,5.1-14.5c0.9-2.3,1.9-7.4,5.3-7.4c3.3,0,6.6,0,9.9-0.1c2.6,0,5.3,0,7.9,0     c4.4,0,4.8,2.8,6.3,6.4c2.1,5.2,4.1,10.4,5.9,15.7c0.3,0.8,1.5,0.4,1.2-0.3c-2.7-7.7-5.7-15.3-8.9-22.7c-0.1-0.2-0.3-0.3-0.5-0.3     c-4.6,0-9.2,0.1-13.8,0.1c-2.7,0-8.5-1.1-10.9,0.3c-1.9,1.1-2.8,6.2-3.6,8.1c-1.8,4.8-3.5,9.6-5.1,14.5     C2.3,35.5,3.5,35.9,3.8,35.1L3.8,35.1z"/></g></g><g><g><path fill="#000000" d="M1.5,36.2c15-0.1,30-0.2,45-0.3c0.8,0,0.8-1.3,0-1.3c-15,0.1-30,0.2-45,0.3C0.7,34.9,0.7,36.2,1.5,36.2     L1.5,36.2z"/></g></g><g><g><path fill="#000000" d="M4.6,32.4c2-2,4.6-5.5,7.6-5.8c3-0.4,7.2,0.9,10.2,1.2c2.9,0.3,5.7,0.4,8.6,0.5c1.9,0.1,4.1-0.6,5.9,0.3     c2.1,1,4.1,2.5,5.9,3.9c0.6,0.5,1.5-0.4,0.9-0.9c-2.4-1.9-5-4.1-8-4.8C34.4,26.4,32.3,27,31,27c-2.3,0-4.6-0.2-6.8-0.4     c-4.3-0.3-9-1.7-13.3-1.2c-2.6,0.3-5.4,4.3-7.1,6C3.1,32.1,4,32.9,4.6,32.4L4.6,32.4z"/></g></g><g><g><path fill="#000000" d="M10.8,13.3c1.2,7.3,1.1,14.7,1,22c0,0.8,1.2,0.8,1.3,0c0.1-7.5,0.1-14.9-1.1-22.4     C11.8,12.2,10.6,12.5,10.8,13.3L10.8,13.3z"/></g></g><g><g><path fill="#000000" d="M18.4,35.1c0-7.2,0-14.4-0.1-21.7c0-0.8-1.3-0.8-1.3,0c0.1,7.2,0.2,14.4,0.1,21.7     C17.1,35.9,18.4,35.9,18.4,35.1L18.4,35.1z"/></g></g><g><g><path fill="#000000" d="M23.2,12.8c0,7.3,0,14.6,0,21.9c0,0.8,1.3,0.8,1.3,0c0-7.3,0-14.6,0-21.9C24.4,12,23.2,12,23.2,12.8     L23.2,12.8z"/></g></g><g><g><path fill="#000000" d="M30.5,35.4c0-7.5,0-14.9,0-22.4c0-0.8-1.3-0.8-1.3,0c0,7.5,0,14.9,0,22.4C29.2,36.2,30.5,36.2,30.5,35.4     L30.5,35.4z"/></g></g><g><g><path fill="#000000" d="M34.8,13.1c0.1,7.3,0.2,14.7,0.3,22c0,0.8,1.3,0.8,1.3,0c-0.1-7.3-0.2-14.7-0.3-22     C36,12.3,34.8,12.3,34.8,13.1L34.8,13.1z"/></g></g><g><g><path fill="#000000" d="M8,22.3c2.1-1,3.2-2.4,5.7-2.6c3.2-0.3,6.6-0.1,9.8-0.1c2.6,0,5.2-0.1,7.9-0.1c3.5-0.1,5.1,0.9,7.8,2.8     c0.7,0.5,1.3-0.6,0.6-1.1c-1.7-1.2-3.3-2.6-5.3-2.9c-2.8-0.5-6.1,0-9,0.1c-3.9,0.1-7.9,0.1-11.8,0.2c-2.7,0-4.1,1.7-6.3,2.8     C6.7,21.6,7.3,22.7,8,22.3L8,22.3z"/></g></g></g><text x="0" y="63" fill="#000000" font-size="5px" font-weight="bold" font-family="'Helvetica Neue', Helvetica, Arial-Unicode, Arial, Sans-serif">Created by Creative Stall</text><text x="0" y="68" fill="#000000" font-size="5px" font-weight="bold" font-family="'Helvetica Neue', Helvetica, Arial-Unicode, Arial, Sans-serif">from the Noun Project</text></svg>