<?xml version="1.0" encoding="utf-8"?>
<!-- Svg Vector Icons : http://www.sfont.cn -->
<!DOCTYPE svg PUBLIC "-//W3C//DTD SVG 1.1//EN" "http://www.w3.org/Graphics/SVG/1.1/DTD/svg11.dtd">
<svg version="1.1" xmlns="http://www.w3.org/2000/svg" xmlns:xlink="http://www.w3.org/1999/xlink" x="0px" y="0px" viewBox="0 0 1000 1000" enable-background="new 0 0 1000 1000" xml:space="preserve">
<metadata> Svg Vector Icons : http://www.sfont.cn </metadata>
<g><g transform="translate(0.000000,511.000000) scale(0.100000,-0.100000)"><path d="M114.5,3091.2C106.2,3085,100,1754.8,100,138.7v-2937.9h114h114v553.2v555.3l283.9-283.9l285.9-285.9l-254.8-254.8L388-2770.2l53.9-49.7l53.9-49.7l256.9,256.9l259,259l259-259l259-259l55.9,58l58,55.9l-259,259l-259,261.1l341.9,329.4l341.9,327.4l331.5-323.2c180.3-178.2,333.6-327.4,339.8-331.5c6.2-2.1-105.7-122.2-246.6-263.1l-256.9-259l60.1-62.2l60.1-62.2l250.7,248.6c136.7,136.7,259,248.6,269.3,248.6c12.4,0,132.6-111.9,269.3-248.6l246.6-248.6l58,55.9l58,55.9l-259,261.1L2729.2-2246l333.6,323.2c184.4,178.2,341.9,325.3,348.1,325.3c8.3,0,163.7-149.2,343.9-329.4l329.4-331.5L3827.3-2505l-256.9-248.6l49.7-53.9c29-29,58-53.9,66.3-53.9s128.4,107.7,265.2,242.4l252.8,240.3l97.4-91.2c53.9-49.7,172-163.7,263.1-252.8l167.8-159.5l55.9,58l55.9,58l-259,256.9l-259,259l325.3,325.3c180.2,180.2,335.6,327.4,348.1,327.4s167.8-147.1,348.1-327.4l325.3-325.3l-259-259l-259-256.9l55.9-58l55.9-58l167.8,159.5c91.2,89.1,209.2,203,263.1,252.8l97.4,91.2l252.8-240.3c136.8-134.7,256.9-242.4,265.2-242.4c8.3,0,37.3,22.8,64.2,51.8l49.7,53.9l-254.9,254.8L5917.8-2246l335.6,319.1c184.4,176.1,339.8,321.1,348.1,325.3c8.3,2.1,163.7-145,343.9-325.3l329.4-331.5l-263.1-252.8L6748.7-2764l58-60.1l56-58l250.7,248.6c136.7,136.7,259,248.6,269.3,248.6s132.6-111.9,269.3-248.6l250.7-248.6l60.1,62.2l60.1,62.2l-252.8,254.8l-252.8,252.8l327.4,327.4c178.2,178.2,335.7,325.3,346,325.3c12.4,0,167.8-147.1,348.1-327.4l327.4-327.4l-261-256.9l-259-256.9l55.9-58l55.9-58l250.7,248.6c136.7,136.7,259,248.6,269.3,248.6c10.4,0,132.6-111.9,269.3-248.6l250.7-248.6l55.9,58l55.9,58l-252.8,252.8l-254.8,252.8l285.9,285.9l283.8,283.9V-2246v-553.2h114h114l-4.2,2948.3l-6.2,2946.2l-4881.4,6.2C2323.1,3103.6,120.7,3099.5,114.5,3091.2z M684.3,2674.7L910.1,2453L618,2177.5l-290.1-275.6v497.3v499.3h66.3C448.1,2898.5,493.7,2865.3,684.3,2674.7z M1322.4,2881.9c0-8.3-70.4-85-155.4-169.9l-155.4-153.3L856.2,2712c-84.9,85-155.4,161.6-155.4,169.9c0,10.4,140.9,16.6,310.8,16.6C1183.6,2898.5,1322.4,2892.3,1322.4,2881.9z M2258.9,2676.8l223.8-223.8L2147,2117.4l-333.6-333.6L1473.7,2107c-186.5,178.2-335.6,329.4-333.6,339.8c4.1,8.3,103.6,114,221.7,234.1l215.5,217.5h230h230L2258.9,2676.8z M2762.4,2732.7L2596.6,2567l-149.2,149.2c-82.9,82.9-151.2,157.5-151.2,165.8c0,10.4,143,16.6,314.9,16.6h317L2762.4,2732.7z M4513.1,2892.3c0-2.1-72.5-76.7-161.6-165.8L4192,2567l-165.8,165.8l-165.8,165.8h327.4C4366,2898.5,4513.1,2896.4,4513.1,2892.3z M6108.5,2892.3c0-2.1-72.5-76.7-161.6-165.8L5787.3,2567l-165.8,165.8l-165.7,165.8h327.3C5961.4,2898.5,6108.5,2896.4,6108.5,2892.3z M7683.1,2881.9c0-8.3-70.4-85-155.4-169.9l-155.4-153.3L7216.9,2712c-84.9,85-155.4,161.6-155.4,169.9c0,10.4,140.9,16.6,310.8,16.6C7544.3,2898.5,7683.1,2892.3,7683.1,2881.9z M9278.4,2881.9c0-8.3-70.4-85-155.4-169.9l-155.4-153.3L8812.3,2712c-84.9,85-155.4,161.6-155.4,169.9c0,10.4,140.9,16.6,310.8,16.6C9139.6,2898.5,9278.4,2892.3,9278.4,2881.9z M9651.4,2397.1v-503.5l-281.8,281.8l-281.8,281.8l225.8,219.6c174,172,236.2,221.7,281.8,221.7h55.9V2397.1z M3866.7,2664.4L4078,2453l-337.7-337.7l-339.8-337.7l-339.8,331.5l-339.8,329.4l217.5,219.6l217.5,219.6h248.6h248.6L3866.7,2664.4z M5445.4,2678.9c114-109.8,207.2-211.3,207.2-223.8c0-12.4-149.2-172-331.5-354.3l-331.5-331.5L4654,2107l-337.7,335.6l217.5,217.5l217.5,217.5h242.4h242.4L5445.4,2678.9z M7040.8,2670.6l217.5-205.1l-341.9-343.9l-341.9-341.9L6239,2115.3L5903.3,2451l221.7,213.4l221.7,211.3H6585h238.3L7040.8,2670.6z M8632,2666.4l213.4-211.3l-337.7-337.7L8170,1779.7l-337.7,335.6L7494.6,2453l223.8,211.3l223.8,213.4h238.3h238.3L8632,2666.4z M1353.5,2007.6l331.5-331.5l-337.7-337.7l-335.6-335.6L676,1338.4l-337.7,337.7l331.5,331.5c182.3,182.3,335.6,331.5,341.9,331.5C1017.8,2339.1,1171.2,2189.9,1353.5,2007.6z M3156,1802.5l124.3-126.4l-335.6-335.7l-333.6-333.6l-343.9,329.4l-343.9,329.4l335.6,335.7l335.6,335.6l217.5-205.1C2932.3,2020,3087.7,1870.8,3156,1802.5z M4803.2,1744.5l72.5-68.4l-331.5-331.5c-182.3-182.3-337.7-331.5-343.9-331.5c-8.3,0-163.7,147.1-350.1,325.3l-333.6,323.2l335.6,337.7l337.7,337.7l271.4-261.1C4608.4,1930.9,4763.8,1781.7,4803.2,1744.5z M6127.1,1340.4c-186.5-180.2-341.9-327.4-348.1-327.4c-8.3,0-161.6,149.2-343.9,331.5L5105.7,1674l339.8,331.5l341.9,329.4l337.7-333.6l339.8-335.7L6127.1,1340.4z M7722.5,1344.6c-184.4-176.1-341.9-323.2-348.1-327.4c-6.2-2.1-161.6,145-343.9,329.4l-331.5,333.6l341.9,329.4l341.9,329.4l335.6-335.6l337.7-337.7L7722.5,1344.6z M9309.5,2007.6l331.5-331.5l-337.7-337.7l-335.6-335.6L8632,1338.4l-337.7,337.7l331.5,331.5c182.3,182.3,335.7,331.5,341.9,331.5S9127.2,2189.9,9309.5,2007.6z M2478.5,886.7c2.1-6.2-149.2-159.5-337.7-339.8l-341.9-325.3l-337.7,333.6l-335.6,335.6l341.9,329.4l341.9,327.4l331.5-323.2C2323.1,1046.2,2474.4,892.9,2478.5,886.7z M3742.4,559.3c-182.3-178.2-337.7-325.3-346-329.4c-6.2-2.1-161.6,145-343.9,327.4l-331.5,333.6l337.7,333.6l337.7,335.6l337.7-337.7l337.7-337.7L3742.4,559.3z M5331.5,1220.3L5663,888.8l-337.7-337.7l-335.7-335.6L4654,551.1l-337.7,337.7l331.5,331.5c182.3,182.3,335.6,331.5,341.9,331.5C4995.9,1551.8,5149.2,1402.6,5331.5,1220.3z M6989,1160.2l269.3-271.4l-335.7-335.7l-335.6-335.6L6247.3,549l-341.9,329.4l333.6,335.6l333.6,335.6l72.5-60.1C6686.5,1456.5,6839.8,1309.4,6989,1160.2z M8843.3,888.8c0-8.3-149.2-161.6-333.6-339.8l-331.5-325.3l-304.6,288c-167.8,159.5-321.1,308.7-341.9,331.5c-37.3,41.4-33.2,47.7,300.4,372.9l337.7,331.5l335.6-321.1C8692.1,1048.3,8843.3,897.1,8843.3,888.8z M611.8,604.9L327.9,319v569.8v569.8l283.9-285.9l285.9-283.8L611.8,604.9z M9651.4,884.6V319l-283.9,283.8l-285.9,285.9l279.7,279.7c153.3,153.3,281.8,279.7,283.9,279.7C9649.3,1448.2,9651.4,1193.3,9651.4,884.6z M1353.5,432.9L1685,101.5l-337.7-337.7l-335.6-335.6L676-236.3L338.3,101.5l331.5,331.5c182.3,182.3,335.6,331.5,341.9,331.5C1017.8,764.5,1171.2,615.3,1353.5,432.9z M2948.8,432.9l331.5-331.5l-337.7-337.7L2607-571.9l-335.6,335.6l-337.7,337.7l331.5,331.5c182.3,182.3,335.6,331.5,341.9,331.5S2766.5,615.3,2948.8,432.9z M4751.4,227.8l122.2-126.4L4751.4-24.9c-68.4-68.4-221.7-217.5-341.9-327.4l-217.5-203l-341.9,329.4l-339.8,329.4l339.8,327.4L4192,758.2l217.5-203C4529.7,445.4,4683,296.2,4751.4,227.8z M6454.5,97.3c-2.1-8.3-153.3-157.5-337.7-335.6l-333.6-321.1L5443.4-230l-339.8,331.5l339.8,331.5l337.7,329.4l339.8-325.3C6307.3,258.9,6458.6,105.6,6454.5,97.3z M7714.2,432.9l331.5-331.5l-337.7-337.7l-335.6-335.6l-335.6,335.6l-337.7,337.7l331.5,331.5c182.3,182.3,335.6,331.5,341.9,331.5S7531.8,615.3,7714.2,432.9z M9309.5,432.9L9641,101.5l-337.7-337.7l-335.6-335.6L8632-236.3l-337.7,337.7l331.5,331.5c182.3,182.3,335.7,331.5,341.9,331.5S9127.2,615.3,9309.5,432.9z M2151.2-352.3c182.3-174,329.4-323.2,327.4-331.5c-4.1-6.2-155.4-159.5-337.7-337.7l-331.5-323.2l-341.9,327.4l-341.9,329.4l331.5,331.5C1639.4-172,1794.8-24.9,1803.1-27C1809.3-31.2,1966.8-176.2,2151.2-352.3z M3742.4-356.4l331.5-323.2l-337.7-337.7l-337.7-337.7l-337.7,333.6l-339.8,333.6l331.5,333.6C3234.8-172,3390.1-24.9,3396.4-27C3404.7-31.2,3560-178.3,3742.4-356.4z M5331.5-354.4L5663-685.9l-337.7-337.7l-335.7-335.6L4654-1023.6l-337.7,337.7l331.5,331.5C4830.1-172,4983.4-22.9,4989.6-22.9C4995.9-22.9,5149.2-172,5331.5-354.4z M6926.9-356.4l331.5-331.5l-339.8-333.6L6578.8-1353l-335.7,335.6l-337.7,337.7L6239-352.3C6423.4-172,6578.8-24.9,6585-22.9C6591.2-22.9,6744.5-172,6926.9-356.4z M8513.9-348.2c182.3-178.2,329.4-331.5,329.4-337.7c0-8.3-151.2-159.5-337.7-337.7l-337.7-321.1l-337.7,333.6l-339.8,335.7l339.8,325.3C8016.6-170,8174.1-22.9,8178.3-22.9C8182.4-22.9,8333.7-170,8513.9-348.2z M611.8-969.7l-283.9-285.9v569.8v569.8L611.8-402l285.9-283.8L611.8-969.7z M9651.4-679.6v-555.3l-279.7,279.7L9092-675.5L9365.5-402c151.2,151.2,277.6,275.6,279.7,275.6C9649.3-126.5,9651.4-375.1,9651.4-679.6z M1353.5-1141.7l331.5-331.5l-337.7-337.7l-335.6-335.7L676-1810.9l-337.7,337.7l331.5,331.5c182.3,182.3,335.6,331.5,341.9,331.5C1017.8-810.2,1171.2-959.4,1353.5-1141.7z M2948.8-1143.8l331.5-333.6l-341.9-329.4l-341.9-329.4l-337.7,337.7l-335.6,335.6l335.6,325.3c186.5,178.2,341.9,325.3,348.1,325.3C2613.2-810.2,2766.5-959.4,2948.8-1143.8z M4542.1-1139.6l329.4-331.5l-339.8-331.5L4192-2134.1l-337.7,335.6l-337.7,335.6l333.6,327.4c184.4,178.2,339.8,325.3,348.1,325.3C4206.5-810.2,4361.9-959.4,4542.1-1139.6z M6129.2-1135.5l333.6-327.4L6125-1798.5L5787.3-2132l-341.9,329.4l-339.8,331.5l329.4,329.4c182.3,182.3,337.7,331.5,343.9,331.5C5787.3-810.2,5944.8-957.3,6129.2-1135.5z M7720.4-1137.5l335.6-325.3l-337.7-337.7l-335.6-335.7l-341.9,329.4l-341.9,329.4l331.5,333.6c182.3,184.4,335.6,333.6,341.9,331.5C7378.5-812.3,7533.9-959.4,7720.4-1137.5z M9309.5-1141.7l331.5-331.5l-337.7-337.7l-335.6-335.7L8632-1810.9l-337.7,337.7l331.5,331.5c182.3,182.3,335.7,331.5,341.9,331.5S9127.2-959.4,9309.5-1141.7z"/></g></g>
</svg>