<?xml version="1.0" encoding="UTF-8" standalone="no"?>
<!-- Created with Inkscape (http://www.inkscape.org/) -->

<svg
   xmlns:dc="http://purl.org/dc/elements/1.1/"
   xmlns:cc="http://creativecommons.org/ns#"
   xmlns:rdf="http://www.w3.org/1999/02/22-rdf-syntax-ns#"
   xmlns:svg="http://www.w3.org/2000/svg"
   xmlns="http://www.w3.org/2000/svg"
   xmlns:sodipodi="http://sodipodi.sourceforge.net/DTD/sodipodi-0.dtd"
   xmlns:inkscape="http://www.inkscape.org/namespaces/inkscape"
   width="347.60001"
   height="347.60001"
   id="svg4269"
   version="1.1"
   inkscape:version="0.48.4 r9939"
   sodipodi:docname="Moon Sketch.svg">
  <defs
     id="defs4271" />
  <sodipodi:namedview
     id="base"
     pagecolor="#ffffff"
     bordercolor="#666666"
     borderopacity="1.0"
     inkscape:pageopacity="0.0"
     inkscape:pageshadow="2"
     inkscape:zoom="0.98994949"
     inkscape:cx="303.66381"
     inkscape:cy="194.72665"
     inkscape:document-units="px"
     inkscape:current-layer="layer1"
     showgrid="false"
     units="px"
     inkscape:window-width="1366"
     inkscape:window-height="705"
     inkscape:window-x="-8"
     inkscape:window-y="-8"
     inkscape:window-maximized="1" />
  <metadata
     id="metadata4274">
    <rdf:RDF>
      <cc:Work
         rdf:about="">
        <dc:format>image/svg+xml</dc:format>
        <dc:type
           rdf:resource="http://purl.org/dc/dcmitype/StillImage" />
        <dc:title></dc:title>
      </cc:Work>
    </rdf:RDF>
  </metadata>
  <g
     inkscape:label="Ebene 1"
     inkscape:groupmode="layer"
     id="layer1"
     transform="translate(0,-704.76218)">
    <g
       id="g4096"
       transform="matrix(3.7202239,0,0,3.7202239,1129.525,1025.4096)"
       style="stroke:none">
      <path
         transform="translate(-12.605408,31.195998)"
         d="m -197.84411,-70.668724 c 0,25.653823 -20.79653,46.450355 -46.45035,46.450355 -25.65383,0 -46.45036,-20.796532 -46.45036,-46.450355 0,-25.653823 20.79653,-46.450356 46.45036,-46.450356 25.65382,0 46.45035,20.796533 46.45035,46.450356 z"
         sodipodi:ry="46.450356"
         sodipodi:rx="46.450356"
         sodipodi:cy="-70.668724"
         sodipodi:cx="-244.29446"
         id="path4069"
         style="fill:#cccccc;fill-opacity:1;stroke:#000000;stroke-width:0.53452653;stroke-miterlimit:4;stroke-opacity:1;stroke-dasharray:none"
         sodipodi:type="arc" />
      <path
         sodipodi:nodetypes="cscccccccccssscsccccccccccccccsscccssccccccssss"
         inkscape:connector-curvature="0"
         id="path4040"
         d="m -254.165,-71.448024 c -0.57626,-1.728787 -4.45875,-5.767501 -6.46875,-6.4375 -0.30153,-0.100511 -0.71595,-0.125681 -1.25,-0.09375 l 5e-5,0 c -3.73834,0.223519 -12.33894,3.370188 -13.9375,4.96875 -1.47215,2.622384 -6.86309,6.587223 -8.03125,3.5625 2.14062,-4.0573 3.54891,-6.256857 -4.3125,-4.375 -5.88264,5.356813 -10.3829,12.19668 -12.90625,19.9375 0.87086,1.902199 0.77265,3.459892 1.03125,4.53125 2.2498,5.303833 0.0442,11.87763 4,15.625 4.07458,0.07585 3.60161,1.601974 13.0625,1.5625 2.29651,4.593016 -4.75796,6.124415 -3.3125,11.90625 0.18565,0.742623 4.34936,0.598877 5.15625,0.4375 5.99366,-1.198734 2.97431,2.391317 6.61404,3.301249 3.32879,0.832198 5.35187,-5.404775 12.61567,-2.601154 1.83375,-1.222499 -0.3231,-5.792756 -0.72971,-7.012595 -0.78553,-2.356582 1.53613,-7.521483 1,-8.59375 -3.01812,-2.886379 -6.42205,-4.288147 -6.75,-8.75 2.03243,-0.797573 4.17997,-1.029118 5.78125,-1.0625 3.3316,-0.66632 -0.31619,-6.5625 3.78125,-6.5625 3.80103,-0.644079 13.89175,2.301266 11.23327,-3.464903 -1.3597,-2.266178 -2.43754,-3.345894 -5.45231,-3.244519 -2.77974,-0.144062 -5.85212,5.783805 -7.74971,3.584422 -4.10866,-2.72096 -8.79302,2.115119 -13.60471,4.717116 -4.41545,-1.36258 -5.71299,-1.772206 -6.42659,-4.592116 2.24569,-2.146942 3.28649,-2.45407 8.28125,-2 2.14792,-0.37577 4.31441,0.749249 6.46875,0.28125 4.5068,-3.086654 9.38653,-4.00587 12.09375,-8.21875 1.00882,-2.427065 0.61735,-4.86746 -0.1875,-7.40625 z m 10.3125,14.78125 c 0.79598,0 4.41498,-0.201294 4.71875,0.40625 0.3838,0.767604 -7.32741,7.854643 -1.4375,11.78125 0.8871,0.591404 2.62218,1.153429 3.3125,1.84375 -1.01963,8.846845 0.25219,6.551652 2.875,11.46875 0.62411,1.248222 0.0215,2.360301 0.84375,3.59375 3.36255,5.043822 5.34431,-2.184712 4.75,-5.15625 -0.99298,-4.964923 -6.75711,1.941514 -6.75711,-5.586636 0,-6.699776 9.75711,-2.185588 9.75711,-8.600864 -3.23671,-0.241512 -0.61667,-5.556004 -1.5625,-6.75 -1.24485,-5.872918 -5.15786,-5.674195 -9.75163,-3.717116 -0.23315,-3.315173 0.0114,-9.036234 -2.87337,-11.189134 -6.07843,1.193303 -7.445,-5.661473 -11.5625,2.03125 -1.54825,5.045247 3.78544,9.76492 7.6875,9.875 z m -39.9512,6.196628 c -0.27515,1.35544 -1.82018,2.478143 -3.02066,1.991194 -1.79621,-0.728587 -2.22938,-3.118036 -0.90808,-4.118449 1.55315,-1.175964 4.15337,1.020736 3.92874,2.127255 z"
         style="fill:#999999;stroke:none" />
      <path
         sodipodi:nodetypes="cccc"
         inkscape:connector-curvature="0"
         id="path4044"
         d="m -222.77893,-54.956178 c 0.92942,1.858826 3.21264,5.275216 6.02135,3.870863 2.48703,-3.786192 -1.66106,-7.416735 -3.94255,-8.458552 -1.21881,0.226679 -2.58676,3.388268 -2.0788,4.587689 z"
         style="fill:#999999;stroke:none" />
      <path
         sodipodi:nodetypes="ssssscs"
         inkscape:connector-curvature="0"
         id="path4046"
         d="m -225.64623,-35.171768 c 0.66582,1.331645 4.35664,3.838868 4.73105,4.58769 1.07951,2.159008 -1.43932,4.582019 -0.86019,5.16115 1.13414,1.134139 3.4638,-2.219588 3.7275,-3.010671 0.33213,-0.996387 2.23117,-6.944206 1.29029,-7.885091 -2.38753,-2.38753 -1.12937,-7.34771 -4.87442,-9.318744 -2.79514,1.23116 -5.48254,7.52905 -4.01423,10.465666 z"
         style="fill:#999999;stroke:none" />
      <path
         sodipodi:nodetypes="ccccccc"
         inkscape:connector-curvature="0"
         id="path4093"
         d="m -261.24646,-2.6399792 c -0.31037,-2.483384 -1.4823,-2.585443 -4.16661,-3.6859122 3.34775,-0.860163 4.14338,-2.907241 2.77757,-5.3980616 1.71456,1.7770136 3.26184,1.265922 5.24065,-1.839483 -1.19961,4.2261406 1.97115,5.2508706 5.89624,5.3753316 -4.27679,1.413698 -5.28878,3.3604152 -4.04672,5.7563512 -1.95459,-1.302464 -3.74343,-2.357722 -5.70113,-0.208226 z"
         style="fill:#ececec;fill-opacity:1;stroke:none" />
    </g>
  </g>
</svg>
